<?xml version="1.0" standalone="no"?>
<!DOCTYPE svg PUBLIC "-//W3C//DTD SVG 20010904//EN"
 "http://www.w3.org/TR/2001/REC-SVG-20010904/DTD/svg10.dtd">
<svg version="1.0" xmlns="http://www.w3.org/2000/svg"
 width="2000.000000pt" height="2000.000000pt" viewBox="0 0 2000.000000 2000.000000"
 preserveAspectRatio="xMidYMid meet">

<g transform="translate(0.000000,2000.000000) scale(0.100000,-0.100000)"
fill="#000000" stroke="none">
<path d="M8488 18389 l-3 -1243 -39 129 c-21 72 -43 135 -48 140 -11 10 -3
-256 8 -292 4 -15 4 -15 -4 -3 -6 8 -60 197 -121 420 -62 223 -113 410 -115
415 -2 6 -2 -183 1 -420 l4 -430 -35 40 c-20 22 -36 38 -36 35 0 -3 -9 -50
-20 -105 -11 -55 -23 -157 -26 -227 -7 -123 -8 -128 -29 -128 -41 0 -63 -40
-99 -181 -19 -75 -41 -184 -48 -242 -11 -100 -27 -134 -29 -64 0 31 -1 31 -10
7 -6 -13 -11 -46 -12 -72 -1 -26 -3 -48 -4 -48 -1 0 -14 17 -28 37 -14 21 -25
33 -25 28 0 -6 12 -139 27 -297 14 -159 23 -291 19 -295 -11 -12 -156 36 -251
82 -177 88 -348 244 -522 475 -55 74 -285 419 -511 765 -225 347 -643 989
-928 1427 -286 438 -524 805 -531 815 -6 10 324 -882 733 -1982 409 -1100 743
-2004 741 -2008 -5 -15 -351 385 -572 663 -332 416 -630 844 -915 1311 -71
118 -134 221 -139 229 -5 8 30 -70 78 -175 251 -541 462 -1065 646 -1605 85
-250 235 -736 235 -760 0 -10 -88 -69 -240 -161 -172 -103 -239 -148 -236
-159 2 -8 16 -42 30 -75 70 -163 -6 -286 -167 -272 -49 4 -85 17 -169 60
l-107 55 -103 -63 -103 -64 -11 -79 c-21 -148 -69 -188 -211 -179 -46 3 -87 8
-91 11 -3 4 13 239 37 523 36 430 41 517 29 528 -7 6 -53 45 -103 86 -157 128
-465 401 -603 534 l-133 128 93 -129 c247 -345 381 -626 418 -883 12 -80 10
-285 -3 -297 -3 -4 -37 5 -74 19 -37 14 -77 29 -88 33 -14 5 -11 0 9 -16 40
-33 86 -109 86 -143 0 -65 -46 -117 -103 -117 -36 0 -340 77 -500 126 -289 88
-565 198 -829 329 -82 41 -148 72 -148 71 0 -2 44 -36 98 -77 457 -343 932
-787 1301 -1217 46 -54 71 -92 71 -108 0 -13 -3 -24 -7 -24 -34 0 -275 46
-388 74 -459 113 -870 305 -1580 734 -693 419 -867 523 -855 510 3 -3 73 -56
155 -118 677 -511 1339 -1092 1960 -1721 390 -396 478 -501 556 -664 142 -297
69 -529 -256 -812 -274 -240 -354 -322 -415 -428 -52 -91 -52 -93 47 -155 106
-67 232 -189 300 -290 53 -80 83 -133 83 -149 0 -10 -110 -57 -210 -90 -149
-48 -384 -90 -505 -91 -40 0 -55 -3 -46 -9 11 -7 7 -10 -14 -13 -23 -2 -10 -9
61 -35 558 -200 654 -237 642 -245 -7 -4 -87 -32 -178 -62 -291 -95 -587 -151
-863 -163 -81 -3 -150 -9 -152 -13 -2 -3 35 -12 83 -19 292 -41 555 -127 723
-236 228 -147 348 -349 403 -675 33 -198 227 -1596 224 -1619 -4 -31 -116 -99
-390 -236 -191 -95 -214 -109 -299 -186 -112 -102 -941 -946 -1395 -1419 -395
-413 -437 -458 -404 -438 14 9 212 122 440 251 228 129 547 310 709 401 161
92 295 165 298 163 11 -12 -287 -274 -442 -390 -102 -75 -104 -78 -25 -33 233
132 799 391 817 373 5 -6 -122 -171 -235 -306 -246 -294 -570 -608 -837 -809
-90 -68 -88 -70 15 -15 52 28 361 189 685 358 325 169 778 406 1008 527 l419
219 101 -45 c99 -44 247 -96 315 -111 31 -6 32 -8 27 -43 -15 -92 -81 -337
-117 -437 -81 -225 -239 -515 -410 -756 -204 -286 -412 -522 -987 -1119 -280
-291 -486 -516 -620 -676 -103 -124 -210 -262 -191 -248 14 11 1197 952 2350
1872 283 225 517 408 519 406 3 -2 -9 -19 -26 -37 -17 -17 -337 -403 -713
-857 -376 -454 -695 -838 -709 -854 -14 -16 109 106 274 270 165 165 379 371
475 459 281 255 667 581 773 654 76 52 187 99 257 110 118 19 153 10 690 -176
618 -213 561 -190 554 -222 l-6 -26 19 23 18 22 148 -51 c87 -31 147 -57 147
-65 0 -14 -148 -747 -157 -778 -3 -10 25 15 62 55 144 158 413 383 534 445 59
31 91 27 123 -16 25 -34 47 -144 55 -272 3 -60 8 -108 10 -108 15 0 217 136
293 197 50 41 93 73 95 71 6 -6 55 -326 79 -518 50 -396 76 -776 77 -1144 l0
-241 40 109 39 108 -2 1069 -3 1069 258 0 257 0 0 89 0 89 43 -4 c23 -2 -7 5
-68 16 -424 75 -809 182 -1188 333 l-178 70 3 36 3 36 65 7 c258 28 574 145
764 282 94 68 216 176 216 192 0 7 -33 38 -72 70 -103 81 -408 389 -510 515
-170 207 -319 432 -416 626 -80 159 -167 404 -186 524 l-6 36 -193 6 c-206 6
-350 22 -572 63 l-140 26 -170 -89 c-93 -49 -329 -172 -523 -272 l-353 -183 7
-32 c12 -58 82 -260 112 -326 34 -75 147 -206 350 -407 342 -340 719 -624
1085 -818 54 -29 94 -55 89 -59 -6 -3 -28 4 -49 16 -344 196 -660 416 -950
662 -238 203 -658 644 -799 840 l-21 29 -309 -158 c-170 -87 -324 -166 -341
-177 l-33 -20 0 324 0 323 165 94 c91 51 168 97 170 102 3 4 -12 36 -33 71
-73 119 -202 364 -276 523 -337 728 -512 1485 -533 2300 -23 934 175 1845 583
2670 70 142 208 395 264 483 13 20 13 24 0 33 -54 34 -289 167 -357 202 -86
44 -111 75 -50 63 45 -9 203 -33 262 -40 l50 -5 -96 92 c-53 51 -126 115 -163
142 -59 45 -65 53 -62 80 3 17 12 131 22 255 9 124 18 227 20 229 2 2 77 -73
167 -165 150 -154 426 -416 474 -449 19 -13 27 -5 125 118 674 846 1563 1484
2578 1849 266 96 640 196 896 240 l134 23 0 296 0 296 -171 -53 c-305 -95
-507 -131 -688 -121 -57 3 -105 8 -108 11 -15 15 34 238 118 535 63 222 88
346 97 479 l7 106 55 -77 c30 -42 57 -77 60 -77 3 0 23 118 44 263 53 365 49
349 70 254 22 -99 75 -203 135 -269 l48 -52 6 50 c3 27 29 493 59 1036 29 543
55 982 59 975 4 -6 35 -135 70 -286 l64 -274 3 277 2 277 -121 412 c-67 226
-123 414 -125 416 -2 2 -5 -555 -6 -1240z m-4277 -4439 c63 -11 138 -25 167
-31 l53 -11 -83 -78 c-66 -62 -86 -76 -97 -66 -17 13 -161 193 -161 201 0 7
-9 8 121 -15z m-367 -7250 c32 -228 34 -372 6 -488 -11 -45 -27 -97 -36 -114
l-16 -31 -211 6 c-182 5 -400 27 -415 42 -7 7 80 142 176 274 111 152 233 298
358 430 83 87 99 100 105 85 4 -11 19 -102 33 -204z m3291 -2357 c60 -24 87
-53 50 -53 -25 0 -112 48 -118 65 -8 20 -9 20 68 -12z"/>
<path d="M12804 15192 c-115 -126 -259 -341 -240 -359 10 -11 153 35 244 77
l82 39 0 160 c0 89 -3 161 -7 161 -5 0 -40 -35 -79 -78z"/>
<path d="M9250 15099 c-480 -25 -916 -99 -1037 -178 -77 -49 -172 -138 -229
-214 -46 -61 -135 -235 -148 -289 l-6 -28 58 0 c87 0 301 -18 427 -36 417 -59
920 -217 1307 -409 l108 -54 107 54 c389 193 881 347 1313 409 128 19 381 35
433 29 31 -4 37 -2 37 13 0 42 -68 192 -123 274 -51 75 -168 190 -244 240 -62
41 -92 53 -200 79 -407 98 -1151 144 -1803 110z m1135 -89 c94 -7 231 -18 305
-25 l135 -12 -325 -2 c-696 -3 -1485 -77 -1874 -175 -188 -48 -430 -153 -600
-260 -58 -37 -86 -50 -82 -38 36 94 208 284 326 359 49 31 88 46 160 62 212
47 483 82 770 101 180 11 971 5 1185 -10z"/>
<path d="M7028 14052 c-130 -94 -142 -106 -58 -58 36 20 89 49 118 64 40 20
52 31 52 49 0 13 -1 23 -2 23 -2 -1 -51 -36 -110 -78z"/>
<path d="M17110 13811 c-19 -11 -38 -17 -41 -15 -3 1 -6 -3 -6 -11 0 -8 2 -15
4 -15 6 0 83 52 83 56 0 6 -1 5 -40 -15z"/>
<path d="M16895 13708 c-265 -124 -734 -299 -1012 -378 -46 -13 -81 -25 -79
-27 3 -4 171 30 484 98 129 28 236 49 238 46 3 -2 -26 -31 -63 -63 -37 -32
-139 -123 -226 -202 l-158 -142 128 6 128 5 -121 -118 c-74 -73 -156 -141
-213 -178 l-92 -60 38 -7 c21 -4 55 -7 76 -7 20 -1 37 -5 37 -9 0 -17 -117
-151 -239 -275 l-126 -129 100 5 c55 3 111 8 125 13 18 5 -4 -23 -75 -98 -55
-57 -119 -132 -143 -166 -49 -70 -56 -63 88 -87 287 -47 646 -38 934 25 49 11
91 18 93 16 2 -2 -89 -64 -202 -138 l-206 -135 53 -6 c29 -4 88 -7 131 -7 48
0 76 -4 72 -10 -18 -29 -330 -177 -520 -246 l-90 -33 60 -1 c33 -1 85 -5 115
-9 l55 -6 -109 -73 c-101 -67 -320 -183 -426 -226 l-45 -18 32 -14 c18 -8 62
-19 98 -26 36 -7 65 -15 65 -19 0 -3 -39 -25 -87 -47 -49 -23 -81 -41 -73 -42
8 0 98 -9 200 -20 102 -11 394 -43 650 -70 256 -28 470 -52 475 -54 6 -1 -48
-6 -120 -9 -71 -3 -177 -12 -235 -19 l-105 -13 110 -3 c101 -3 348 11 438 25
l37 6 0 68 0 69 -34 0 c-158 0 -700 40 -713 53 -2 3 20 8 49 12 185 22 365 51
512 81 94 19 175 34 180 34 6 0 4 4 -4 9 -8 5 -118 14 -245 20 -126 7 -237 15
-245 17 -8 3 101 43 243 90 l257 85 0 144 0 145 -27 -5 c-65 -11 -246 -26
-251 -21 -2 3 15 14 39 25 24 10 88 40 142 65 119 56 124 71 37 105 -33 13
-60 27 -60 30 0 4 27 18 60 33 l60 26 0 105 0 105 -322 5 c-258 4 -349 9 -453
25 -159 25 -325 62 -325 73 0 5 12 15 26 22 l27 14 -29 6 c-16 3 -38 12 -49
20 -19 14 -18 16 10 53 61 82 186 222 262 295 l80 76 -87 -5 c-50 -2 -90 -1
-93 5 -6 10 158 287 262 443 86 128 216 303 318 428 45 56 81 102 79 102 -2 0
-26 -9 -52 -20 -79 -34 -71 -17 17 35 101 60 108 63 89 40 -14 -17 -13 -17 5
-8 11 6 29 21 40 33 19 21 19 21 -1 14 -15 -5 -12 0 10 24 17 18 28 32 25 32
-2 -1 -62 -28 -134 -62z"/>
<path d="M12764 13101 c-164 -79 -254 -140 -350 -235 -92 -93 -128 -143 -244
-346 -45 -80 -104 -174 -131 -210 -73 -100 -226 -242 -414 -385 -205 -156
-510 -398 -658 -523 l-108 -91 -147 106 c-186 133 -529 361 -737 488 -88 53
-180 110 -204 126 -43 28 -45 28 -70 12 -14 -9 -109 -68 -211 -131 -410 -252
-832 -545 -1134 -786 -195 -155 -304 -252 -468 -414 -105 -102 -138 -142 -138
-161 0 -13 12 -99 26 -190 83 -537 257 -1137 464 -1606 95 -214 188 -393 207
-399 10 -3 90 -21 178 -40 770 -168 1504 -164 2273 13 68 16 124 30 126 32 11
12 161 322 205 421 196 453 376 1076 446 1553 13 88 27 178 30 200 l7 41 -144
139 c-144 141 -310 285 -491 429 -54 43 -95 82 -90 87 22 22 468 358 471 355
3 -4 -79 -153 -151 -276 -25 -44 -14 -33 50 50 28 36 95 108 149 160 334 324
803 505 1264 488 l120 -4 0 578 c0 318 -1 578 -2 578 -2 0 -57 -26 -124 -59z
m-3274 -1315 c0 -3 -33 -28 -72 -57 -295 -214 -717 -585 -1183 -1040 l-200
-195 -67 25 c-38 14 -68 28 -68 32 0 13 321 319 435 414 275 229 518 408 894
657 252 167 261 172 261 164z m-1549 -1280 l54 -25 -67 0 c-69 -1 -84 9 -56
37 15 15 6 16 69 -12z"/>
<path d="M5610 12906 c-159 -61 -328 -135 -335 -146 -2 -4 9 -17 25 -28 l29
-22 73 29 c88 35 270 92 275 87 2 -2 -3 -30 -11 -62 -19 -78 -36 -192 -36
-246 0 -37 5 -46 33 -66 l32 -22 3 32 c10 141 41 352 68 471 5 19 2 27 -7 26
-8 0 -75 -24 -149 -53z"/>
<path d="M13680 12939 c0 -6 9 -54 20 -107 40 -199 54 -374 54 -657 0 -278
-12 -431 -54 -660 -27 -150 -81 -355 -94 -355 -32 1 -1544 -425 -1533 -432 20
-11 211 -48 249 -48 34 0 1289 342 1320 359 13 8 32 -3 90 -53 181 -156 401
-413 550 -646 174 -271 362 -647 470 -942 6 -16 14 -28 18 -28 4 0 45 27 91
61 218 157 345 292 427 458 l47 94 -1 121 c-2 219 -70 650 -153 977 -131 516
-375 1065 -610 1376 -128 168 -338 296 -741 449 -117 45 -150 52 -150 33z
m238 -122 c119 -49 412 -180 409 -184 -2 -1 -92 14 -201 33 -109 19 -200 34
-202 32 -2 -2 4 -58 12 -124 22 -159 14 -458 -16 -633 -33 -201 -106 -470
-136 -507 -13 -16 -15 -16 -10 -2 11 37 56 259 71 358 22 141 31 532 16 681
-11 105 -52 334 -67 373 -9 24 5 21 124 -27z"/>
<path d="M5463 12697 c-46 -11 -83 -23 -83 -26 1 -3 38 -34 83 -69 l82 -63 3
45 c2 25 2 66 0 90 l-3 43 -82 -20z"/>
<path d="M955 12666 c163 -149 764 -613 893 -690 9 -5 12 14 12 84 l0 90 -70
46 c-74 48 -86 60 -44 44 62 -24 24 -2 -201 116 -195 102 -426 229 -605 332
-15 8 -9 -1 15 -22z"/>
<path d="M4848 12423 c-336 -470 -611 -1246 -708 -1993 -34 -271 -40 -375 -24
-438 32 -120 132 -272 261 -392 72 -67 286 -230 302 -230 4 0 15 26 25 58 31
99 134 330 222 500 236 457 484 794 763 1039 46 40 91 73 100 73 9 0 155 -38
324 -85 169 -47 311 -85 315 -85 3 0 -95 58 -218 129 -157 90 -245 134 -290
146 -36 9 -72 21 -81 26 -40 21 -113 394 -144 740 -6 58 -9 67 -35 82 -47 28
-45 50 -19 -236 6 -66 8 -121 6 -123 -6 -6 -43 193 -60 316 l-12 95 -250 158
c-287 181 -405 254 -427 262 -10 4 -26 -9 -50 -42z"/>
<path d="M1750 12417 c0 -2 25 -21 56 -41 31 -21 55 -33 53 -27 -4 11 -109 76
-109 68z"/>
<path d="M1630 12005 c0 -7 212 -145 222 -145 5 0 8 7 6 15 -3 14 -228 142
-228 130z"/>
<path d="M1190 11976 c0 -6 623 -480 658 -500 9 -6 12 23 12 132 l0 139 -117
33 c-132 37 -350 113 -472 164 -45 19 -81 33 -81 32z"/>
<path d="M6540 10968 c13 -14 241 -188 259 -197 26 -14 382 -113 388 -108 2 3
-14 12 -36 20 -82 33 -340 157 -449 216 -96 52 -179 87 -162 69z"/>
<path d="M16553 10723 c9 -2 25 -2 35 0 9 3 1 5 -18 5 -19 0 -27 -2 -17 -5z"/>
<path d="M1640 10519 c-69 -5 -192 -11 -275 -15 l-150 -7 100 -23 c148 -34
360 -111 496 -180 l49 -24 0 130 0 130 -47 -2 c-27 0 -104 -5 -173 -9z"/>
<path d="M1158 10503 c7 -3 16 -2 19 1 4 3 -2 6 -13 5 -11 0 -14 -3 -6 -6z"/>
<path d="M1695 10129 c-236 -20 -497 -53 -474 -60 13 -4 143 -19 289 -34 146
-14 274 -30 285 -35 12 -5 -73 -9 -214 -9 -129 -1 -232 -3 -230 -5 6 -6 224
-33 324 -41 44 -3 104 -8 133 -11 l52 -5 0 105 0 106 -37 -1 c-21 -1 -78 -5
-128 -10z"/>
<path d="M14358 9875 l-3 -45 54 0 55 0 -35 36 c-57 60 -66 61 -71 9z"/>
<path d="M5356 7003 c-6 -15 -33 -149 -51 -256 l-5 -29 53 31 c28 17 94 54
145 82 105 58 106 48 -8 113 -36 20 -79 46 -96 57 -30 18 -32 18 -38 2z"/>
<path d="M14030 6973 c-81 -53 -307 -164 -450 -221 -381 -152 -792 -236 -1224
-251 l-179 -6 -14 -70 c-52 -264 -239 -645 -467 -952 -187 -251 -535 -614
-696 -725 l-25 -17 68 -66 c227 -219 538 -362 898 -411 l115 -16 125 47 c497
189 976 509 1443 965 257 252 351 362 397 470 144 333 185 745 113 1135 -20
106 -33 155 -42 154 -4 0 -32 -16 -62 -36z"/>
<path d="M10860 4255 c13 -14 26 -25 28 -25 3 0 -5 11 -18 25 -13 14 -26 25
-28 25 -3 0 5 -11 18 -25z"/>
<path d="M10996 4130 c122 -128 183 -200 254 -305 l54 -79 -109 88 c-61 49
-119 96 -130 105 -11 8 12 -18 51 -59 368 -390 635 -729 898 -1142 l61 -97 -3
75 c-3 43 0 74 5 74 15 0 169 -94 232 -142 31 -23 80 -64 109 -92 29 -27 50
-43 48 -35 -21 57 -76 243 -73 246 2 2 65 -37 140 -87 147 -97 343 -249 450
-350 l67 -62 0 290 0 291 -131 93 c-205 146 -272 192 -449 302 -193 120 -369
220 -375 214 -4 -4 91 -319 140 -465 7 -24 12 -43 11 -43 -2 0 -43 53 -91 118
-250 333 -413 504 -625 650 -143 99 -249 182 -420 331 -85 74 -168 146 -185
160 -16 14 15 -22 71 -79z"/>
<path d="M8913 3743 c9 -2 25 -2 35 0 9 3 1 5 -18 5 -19 0 -27 -2 -17 -5z"/>
<path d="M8993 3733 c9 -2 25 -2 35 0 9 3 1 5 -18 5 -19 0 -27 -2 -17 -5z"/>
<path d="M9078 3723 c12 -2 30 -2 40 0 9 3 -1 5 -23 4 -22 0 -30 -2 -17 -4z"/>
<path d="M9178 3713 c12 -2 30 -2 40 0 9 3 -1 5 -23 4 -22 0 -30 -2 -17 -4z"/>
<path d="M9293 3703 c15 -2 39 -2 55 0 15 2 2 4 -28 4 -30 0 -43 -2 -27 -4z"/>
<path d="M9468 3693 c18 -2 45 -2 60 0 15 2 0 4 -33 4 -33 0 -45 -2 -27 -4z"/>
<path d="M9908 3693 c6 -2 18 -2 25 0 6 3 1 5 -13 5 -14 0 -19 -2 -12 -5z"/>
<path d="M9963 3693 c9 -2 23 -2 30 0 6 3 -1 5 -18 5 -16 0 -22 -2 -12 -5z"/>
<path d="M12110 2560 c6 -11 13 -20 16 -20 2 0 0 9 -6 20 -6 11 -13 20 -16 20
-2 0 0 -9 6 -20z"/>
</g>
</svg>
